<mxfile host="app.diagrams.net" modified="2023-12-06T10:09:36.952Z" agent="Mozilla/5.0 (Windows NT 10.0; Win64; x64) AppleWebKit/537.36 (KHTML, like Gecko) Chrome/119.0.0.0 Safari/537.36" etag="Z7P6n7CtgM7Kj0VKymhN" version="22.1.5" type="device">
  <diagram name="‫עמוד-1‬" id="rjmdNczyarkRn6ofu8nF">
    <mxGraphModel dx="2074" dy="1110" grid="1" gridSize="10" guides="1" tooltips="1" connect="1" arrows="1" fold="1" page="1" pageScale="1" pageWidth="827" pageHeight="1169" math="0" shadow="0">
      <root>
        <mxCell id="0" />
        <mxCell id="1" parent="0" />
        <mxCell id="Xpj5u_XjEaXs7XAaaVUe-2" value="&lt;font style=&quot;font-size: 22px;&quot;&gt;&lt;font style=&quot;border-color: var(--border-color); font-size: 22px;&quot;&gt;abstract class&amp;nbsp;&lt;/font&gt;Animals&lt;/font&gt;" style="ellipse;shape=cloud;whiteSpace=wrap;html=1;" vertex="1" parent="1">
          <mxGeometry x="179" y="50" width="429" height="80" as="geometry" />
        </mxCell>
        <mxCell id="Xpj5u_XjEaXs7XAaaVUe-3" value="&lt;font style=&quot;font-size: 22px;&quot;&gt;domesticAnimals&lt;/font&gt;" style="rounded=1;whiteSpace=wrap;html=1;" vertex="1" parent="1">
          <mxGeometry x="80" y="220" width="181" height="60" as="geometry" />
        </mxCell>
        <mxCell id="Xpj5u_XjEaXs7XAaaVUe-7" value="&lt;font style=&quot;font-size: 22px;&quot;&gt;baggegeAnimals&lt;/font&gt;" style="rounded=1;whiteSpace=wrap;html=1;" vertex="1" parent="1">
          <mxGeometry x="550" y="220" width="181" height="60" as="geometry" />
        </mxCell>
        <mxCell id="Xpj5u_XjEaXs7XAaaVUe-8" value="Extends" style="edgeStyle=orthogonalEdgeStyle;rounded=0;orthogonalLoop=1;jettySize=auto;html=1;entryX=0.8;entryY=0.8;entryDx=0;entryDy=0;entryPerimeter=0;fontSize=18;verticalAlign=middle;" edge="1" parent="1" source="Xpj5u_XjEaXs7XAaaVUe-7" target="Xpj5u_XjEaXs7XAaaVUe-2">
          <mxGeometry relative="1" as="geometry" />
        </mxCell>
        <mxCell id="Xpj5u_XjEaXs7XAaaVUe-10" value="&lt;font style=&quot;&quot;&gt;&lt;font style=&quot;font-size: 18px;&quot;&gt;Exstends&lt;/font&gt;&lt;br&gt;&lt;/font&gt;" style="edgeStyle=orthogonalEdgeStyle;rounded=0;orthogonalLoop=1;jettySize=auto;html=1;entryX=0.31;entryY=0.8;entryDx=0;entryDy=0;entryPerimeter=0;" edge="1" parent="1" source="Xpj5u_XjEaXs7XAaaVUe-3" target="Xpj5u_XjEaXs7XAaaVUe-2">
          <mxGeometry relative="1" as="geometry" />
        </mxCell>
        <mxCell id="Xpj5u_XjEaXs7XAaaVUe-14" style="edgeStyle=orthogonalEdgeStyle;rounded=0;orthogonalLoop=1;jettySize=auto;html=1;entryX=0.25;entryY=1;entryDx=0;entryDy=0;fontSize=18;" edge="1" parent="1" source="Xpj5u_XjEaXs7XAaaVUe-11" target="Xpj5u_XjEaXs7XAaaVUe-3">
          <mxGeometry relative="1" as="geometry" />
        </mxCell>
        <mxCell id="Xpj5u_XjEaXs7XAaaVUe-25" value="Extends" style="edgeLabel;html=1;align=center;verticalAlign=middle;resizable=0;points=[];" vertex="1" connectable="0" parent="Xpj5u_XjEaXs7XAaaVUe-14">
          <mxGeometry x="0.1565" y="-1" relative="1" as="geometry">
            <mxPoint as="offset" />
          </mxGeometry>
        </mxCell>
        <mxCell id="Xpj5u_XjEaXs7XAaaVUe-11" value="&lt;font style=&quot;font-size: 22px;&quot;&gt;Dog&lt;/font&gt;" style="rounded=1;whiteSpace=wrap;html=1;" vertex="1" parent="1">
          <mxGeometry x="40" y="330" width="70" height="60" as="geometry" />
        </mxCell>
        <mxCell id="Xpj5u_XjEaXs7XAaaVUe-12" value="&lt;font style=&quot;font-size: 22px;&quot;&gt;Cat&lt;/font&gt;" style="rounded=1;whiteSpace=wrap;html=1;" vertex="1" parent="1">
          <mxGeometry x="135.5" y="330" width="70" height="60" as="geometry" />
        </mxCell>
        <mxCell id="Xpj5u_XjEaXs7XAaaVUe-16" style="edgeStyle=orthogonalEdgeStyle;rounded=0;orthogonalLoop=1;jettySize=auto;html=1;entryX=0.75;entryY=1;entryDx=0;entryDy=0;" edge="1" parent="1" source="Xpj5u_XjEaXs7XAaaVUe-13" target="Xpj5u_XjEaXs7XAaaVUe-3">
          <mxGeometry relative="1" as="geometry" />
        </mxCell>
        <mxCell id="Xpj5u_XjEaXs7XAaaVUe-26" value="Extends" style="edgeLabel;html=1;align=center;verticalAlign=middle;resizable=0;points=[];" vertex="1" connectable="0" parent="Xpj5u_XjEaXs7XAaaVUe-16">
          <mxGeometry x="-0.3624" relative="1" as="geometry">
            <mxPoint as="offset" />
          </mxGeometry>
        </mxCell>
        <mxCell id="Xpj5u_XjEaXs7XAaaVUe-13" value="&lt;font style=&quot;font-size: 22px;&quot;&gt;Hamster&lt;/font&gt;" style="rounded=1;whiteSpace=wrap;html=1;" vertex="1" parent="1">
          <mxGeometry x="230" y="330" width="110" height="60" as="geometry" />
        </mxCell>
        <mxCell id="Xpj5u_XjEaXs7XAaaVUe-15" style="edgeStyle=orthogonalEdgeStyle;rounded=0;orthogonalLoop=1;jettySize=auto;html=1;entryX=0.5;entryY=1;entryDx=0;entryDy=0;" edge="1" parent="1" source="Xpj5u_XjEaXs7XAaaVUe-12" target="Xpj5u_XjEaXs7XAaaVUe-3">
          <mxGeometry relative="1" as="geometry" />
        </mxCell>
        <mxCell id="Xpj5u_XjEaXs7XAaaVUe-27" value="Extends" style="edgeLabel;html=1;align=center;verticalAlign=middle;resizable=0;points=[];" vertex="1" connectable="0" parent="Xpj5u_XjEaXs7XAaaVUe-15">
          <mxGeometry x="0.12" y="1" relative="1" as="geometry">
            <mxPoint x="1" as="offset" />
          </mxGeometry>
        </mxCell>
        <mxCell id="Xpj5u_XjEaXs7XAaaVUe-21" style="edgeStyle=orthogonalEdgeStyle;rounded=0;orthogonalLoop=1;jettySize=auto;html=1;entryX=0.25;entryY=1;entryDx=0;entryDy=0;exitX=0.5;exitY=0;exitDx=0;exitDy=0;" edge="1" parent="1" source="Xpj5u_XjEaXs7XAaaVUe-18" target="Xpj5u_XjEaXs7XAaaVUe-7">
          <mxGeometry relative="1" as="geometry" />
        </mxCell>
        <mxCell id="Xpj5u_XjEaXs7XAaaVUe-28" value="Extends" style="edgeLabel;html=1;align=center;verticalAlign=middle;resizable=0;points=[];" vertex="1" connectable="0" parent="Xpj5u_XjEaXs7XAaaVUe-21">
          <mxGeometry x="-0.0104" y="2" relative="1" as="geometry">
            <mxPoint as="offset" />
          </mxGeometry>
        </mxCell>
        <mxCell id="Xpj5u_XjEaXs7XAaaVUe-18" value="&lt;font style=&quot;font-size: 22px;&quot;&gt;Horse&lt;/font&gt;" style="rounded=1;whiteSpace=wrap;html=1;" vertex="1" parent="1">
          <mxGeometry x="480" y="330" width="80" height="60" as="geometry" />
        </mxCell>
        <mxCell id="Xpj5u_XjEaXs7XAaaVUe-23" value="Extends" style="edgeStyle=orthogonalEdgeStyle;rounded=0;orthogonalLoop=1;jettySize=auto;html=1;" edge="1" parent="1" source="Xpj5u_XjEaXs7XAaaVUe-19" target="Xpj5u_XjEaXs7XAaaVUe-7">
          <mxGeometry relative="1" as="geometry" />
        </mxCell>
        <mxCell id="Xpj5u_XjEaXs7XAaaVUe-19" value="&lt;font style=&quot;font-size: 22px;&quot;&gt;Camel&lt;/font&gt;" style="rounded=1;whiteSpace=wrap;html=1;" vertex="1" parent="1">
          <mxGeometry x="580" y="330" width="90" height="60" as="geometry" />
        </mxCell>
        <mxCell id="Xpj5u_XjEaXs7XAaaVUe-24" value="Extends" style="edgeStyle=orthogonalEdgeStyle;rounded=0;orthogonalLoop=1;jettySize=auto;html=1;entryX=0.75;entryY=1;entryDx=0;entryDy=0;" edge="1" parent="1" source="Xpj5u_XjEaXs7XAaaVUe-20" target="Xpj5u_XjEaXs7XAaaVUe-7">
          <mxGeometry relative="1" as="geometry" />
        </mxCell>
        <mxCell id="Xpj5u_XjEaXs7XAaaVUe-20" value="&lt;font style=&quot;font-size: 22px;&quot;&gt;Donkey&lt;/font&gt;" style="rounded=1;whiteSpace=wrap;html=1;" vertex="1" parent="1">
          <mxGeometry x="687" y="330" width="120" height="60" as="geometry" />
        </mxCell>
      </root>
    </mxGraphModel>
  </diagram>
</mxfile>
